<?xml version="1.0" encoding="UTF-8" standalone="no"?>
<!DOCTYPE svg PUBLIC "-//W3C//DTD SVG 1.1//EN" "http://www.w3.org/Graphics/SVG/1.1/DTD/svg11.dtd">
<svg width="100%" height="100%" viewBox="0 0 3616 7491" version="1.1" xmlns="http://www.w3.org/2000/svg" xmlns:xlink="http://www.w3.org/1999/xlink" xml:space="preserve" xmlns:serif="http://www.serif.com/" style="fill-rule:evenodd;clip-rule:evenodd;stroke-linecap:round;stroke-linejoin:round;stroke-miterlimit:1.5;">
    <g transform="matrix(0.813137,0,0,0.962261,-3689.08,-835.233)">
        <g>
            <rect x="4543.25" y="873.403" width="4433.77" height="7773.39" style="fill:white;"/>
            <g transform="matrix(1.2298,0,0,1.03922,-763.803,99.7561)">
                <g id="Bridges">
                    <g id="Tyne-Bridge" serif:id="Tyne Bridge" transform="matrix(7.05349,0,0,7.20169,3129.26,-517.2)">
                        <g>
                            <g id="_-Curve-" serif:id="(Curve)" transform="matrix(1,0,0,1.09115,-0.611825,188.215)">
                                <path d="M30.477,194.182L115.727,195.024L140.998,168.973L197.49,110.931C197.49,110.931 257.016,64.658 283.467,49.403C306.184,36.302 331.1,27.016 356.194,19.401C381.544,11.709 409.669,5.018 435.565,3.248C460.909,1.517 487.124,1.886 511.572,8.784C543.049,17.666 595.928,42.322 624.427,56.539C645.069,66.836 664.488,79.747 682.561,94.083C701.822,109.359 724.216,132.538 739.988,148.199C752.884,161.005 777.195,188.054 777.195,188.054L873.788,187.637L891.111,366.279L856.673,325.526L769.384,222.634L125.214,222.33L34.75,332.447L18.68,329.143L30.477,194.182Z" style="fill:white;stroke:black;stroke-width:1.4px;"/>
                            </g>
                            <path d="M837.257,525.761L837.214,525.743C837.214,525.743 793.404,465.627 769.964,436.321L125.131,438.119C109.265,458.032 94.117,475.57 79.526,496.557C72.028,507.343 55.296,531.02 55.248,531.09C52.125,535.598 46.992,543.986 42.506,549.829C38.118,555.544 32.379,563.327 28.332,566.149C25.563,568.08 21.19,567.691 18.224,566.761C15.272,565.836 15.395,556.646 19.241,548.984C22.888,541.72 30.127,530.414 35.797,521.268C39.958,514.557 47.863,502.252 52.694,494.76C63.732,474.523 75.419,457.618 87.856,438.223L46.678,437.567L46.237,428.789L93.552,429.457C98.54,421.882 103.647,411.391 108.879,403.994L46.671,404.595L46.631,395.845L115.204,395.182C150.386,346.891 191.124,302.891 239.231,266.309C297.594,221.928 368.122,190.535 442.652,188.877C445.239,188.82 447.826,188.801 450.408,188.808C496.912,189.084 542.876,200.842 584.711,220.963C651.479,253.074 707.712,304.496 755.292,361.666C762.675,370.536 769.878,379.588 776.904,388.79C776.904,388.79 849.889,388.813 851.342,388.391L851.249,397.176L783.453,397.478C785.822,400.66 800.464,424.084 802.81,427.479L851.465,427.672L851.606,435.967L808.776,436.213C824.594,459.626 839.403,480.641 853.265,504.803L853.319,504.771C853.319,504.771 862.429,520.271 864.251,523.371C865.681,525.829 870.313,533.604 872.835,538.114C875.105,542.174 876.973,546.834 878.382,550.436C879.534,553.382 880.751,557.425 880.291,559.73C879.867,561.858 877.792,564.211 875.623,564.267C873.414,564.323 869.602,561.956 867.034,560.069C863.118,557.192 857.191,551.224 853.128,547.006C849.547,543.289 846.702,538.925 843.651,534.762C842.083,532.624 839.582,529.08 837.257,525.761ZM113.465,438.152L98.556,438.193C81.162,464.72 66.229,488.237 51.558,516.362C51.798,518.585 52.892,518.932 54.621,517.913C55.674,516.412 55.768,515.925 56.79,514.394C74.818,487.399 93.545,463.802 113.465,438.152ZM845.711,509.221C830.846,483.346 815.139,460.893 798.333,436.242L780.905,436.291C801.437,462.216 820.712,486.057 838.944,513.179L845.711,509.221ZM126.257,422.024L109.371,422.105C107.695,424.537 106.032,426.977 104.382,429.427L120.352,429.382C122.309,426.92 124.277,424.467 126.257,422.024ZM755.77,418.99L138.279,421.966C136.24,424.416 134.214,426.878 132.198,429.349L762.899,427.591C760.54,424.709 758.164,421.842 755.77,418.99ZM786.186,418.843L766.853,418.937C769.223,421.798 771.577,424.673 773.914,427.56L792.308,427.509C790.284,424.608 788.243,421.72 786.186,418.843ZM138.953,403.703L120.124,403.885C118.575,406.024 117.037,408.171 115.509,410.325L133.467,410.239C135.285,408.052 137.114,405.873 138.953,403.703ZM740.168,397.896L530.892,399.917C530.196,400.095 529.467,400.114 528.775,399.938L151.357,403.584C149.454,405.773 147.561,407.972 145.678,410.18L748.363,407.276C745.654,404.129 742.922,401.002 740.168,397.896ZM772.77,397.581L751.432,397.787C754.158,400.913 756.863,404.059 759.547,407.222L779.871,407.124C777.525,403.926 775.158,400.745 772.77,397.581ZM156.786,383.347L135.526,383.347C132.513,387.226 129.538,391.135 126.602,395.072L146.538,394.88C149.916,391.004 153.332,387.159 156.786,383.347ZM191.985,360.031C188.545,363.455 185.14,366.911 181.769,370.395C174.057,378.364 166.516,386.49 159.133,394.758L191.985,394.441L191.985,360.031ZM222.124,331.778C214.762,338.247 207.552,344.903 200.487,351.706C200.632,352.152 200.717,352.656 200.735,353.223L200.735,394.356L222.124,394.15L222.124,331.778ZM257.075,303.485C248.099,310.127 239.335,317.093 230.774,324.324C230.829,324.579 230.863,324.841 230.874,325.109L230.874,394.065L257.075,393.812L257.075,303.485ZM289.371,281.652C281.365,286.553 273.518,291.735 265.825,297.161L265.825,393.727L290.871,393.485L289.371,281.652ZM324.983,262.315C315.812,266.665 306.838,271.403 298.052,276.484L299.621,393.401L323.868,393.167L324.983,262.315ZM357.692,248.843C353.209,250.402 348.752,252.071 344.324,253.848C340.777,255.272 337.258,256.755 333.768,258.295L332.619,393.082L358.179,392.835L357.692,248.843ZM389.37,239.783C381.672,241.516 374.02,243.577 366.432,245.954L366.929,392.751L391.314,392.515C391.308,392.459 391.303,392.403 391.299,392.347L389.37,239.783ZM423.291,234.327C414.863,235.141 406.457,236.358 398.098,237.962L400.048,392.236C400.045,392.302 400.042,392.367 400.038,392.431L425.649,392.184L423.291,234.327ZM460.576,233.392C451.064,232.94 441.538,233.026 432.031,233.628L434.399,392.099L462.408,391.828L460.576,233.392ZM469.333,233.96L471.158,391.744L492.749,391.535L492.749,236.98C486.382,235.865 479.961,234.98 473.488,234.337C472.104,234.2 470.719,234.074 469.333,233.96ZM501.499,238.661L501.499,391.451L525.719,391.217L525.719,244.864C517.743,242.448 509.667,240.369 501.499,238.661ZM534.469,247.663L534.469,391.132L559.994,390.886L559.994,257.504C551.613,253.863 543.102,250.569 534.469,247.663ZM568.744,261.451L568.744,390.801L592.621,390.571L592.621,273.709C584.795,269.334 576.833,265.235 568.744,261.451ZM601.371,278.746L601.371,390.486L625.228,390.256L625.228,293.971C617.434,288.639 609.479,283.549 601.371,278.746ZM633.978,300.105L633.978,390.171L658.588,389.933L658.588,318.957C650.591,312.444 642.384,306.14 633.978,300.105ZM667.338,326.228L667.338,389.849L691.017,389.62L691.017,350.043C691.041,349.231 691.104,349.096 691.215,348.742C691.315,348.421 691.441,348.118 691.594,347.837C683.699,340.449 675.619,333.24 667.338,326.228ZM699.767,355.613L699.767,389.536L732.365,389.221C721.849,377.695 710.997,366.474 699.767,355.613ZM759.007,381.607L735.206,381.607C738.422,385.081 740.608,385.583 743.767,389.111L766.122,388.895C763.445,385.443 761.74,385.014 759.007,381.607ZM160.884,352.494C160.618,352.8 160.352,353.106 160.086,353.413C153.013,361.567 146.135,369.883 139.444,378.347C139.444,378.347 160.697,378.282 160.508,377.332L160.884,352.494ZM731.747,376.607L754.961,376.607C746.314,366.012 736.39,352.651 727.162,342.564L731.747,376.607ZM165.884,350.063L165.884,373.481C173.719,365.135 181.754,356.963 190.009,348.989L165.884,350.063ZM696.93,342.017C699.718,344.63 702.482,347.264 705.222,349.915C712.342,356.806 719.328,363.845 726.184,371.016L722.818,341.875L696.93,342.017ZM194.443,316.757C185.162,325.884 176.188,335.319 167.518,344.986L192.415,343.877L194.443,316.757ZM197.585,341.786C206.649,333.305 215.979,325.064 225.601,317.092L199.521,315.904L197.585,341.786ZM666.147,313.781C674.61,320.757 682.864,327.972 690.915,335.365L690.092,307.085L666.147,313.781ZM696.907,337.017L721.029,336.885C712.978,328.351 703.699,318.024 695.177,309.928L696.907,337.017ZM229.217,285.337C219.325,293.506 209.735,302.065 200.444,310.941L228.756,312.231L229.217,285.337ZM233.788,310.433C241.488,304.284 249.374,298.307 257.458,292.517C257.928,291.448 258.792,290.589 259.882,290.141L234.27,282.247L233.788,310.433ZM633.933,289.223C642.895,295.5 651.644,302.091 660.184,308.935L656.892,278.466L633.933,289.223ZM665.204,308.853L687.378,302.652C679.217,295.178 670.819,287.932 662.192,280.973L665.204,308.853ZM266.919,285.898C274.509,280.725 282.287,275.771 290.235,271.08C290.656,270.54 291.197,270.096 291.828,269.793L269.56,256.316L266.919,285.898ZM264.302,258.98C255.343,265.058 246.603,271.476 238.079,278.189L261.931,285.54L264.302,258.98ZM632.186,284.52L653.833,274.378C644.664,267.304 635.248,260.565 625.59,254.23L632.186,284.52ZM598.982,267.09C608.565,272.518 617.925,278.344 627.066,284.504L620.447,254.111L598.982,267.09ZM298.89,266.114C307.697,261.207 316.698,256.631 325.873,252.442L303.521,236.672L298.89,266.114ZM298.21,238.258C289.816,242.834 281.595,247.72 273.544,252.882L293.966,265.242L298.21,238.258ZM566.977,250.9C576.35,255.078 585.526,259.659 594.507,264.594L587.61,237.248L566.977,250.9ZM598.841,261.333L618.311,249.56C609.743,244.189 600.993,239.14 592.064,234.46L598.841,261.333ZM333.091,249.243C341.906,245.453 350.873,242.026 359.973,239.013L337.224,220.716L333.091,249.243ZM534.107,238.264C538.055,239.535 541.975,240.887 545.864,242.316C551.532,244.4 557.13,246.635 562.661,249.011L552.781,220.622L534.107,238.264ZM331.988,221.985C329.438,223.047 326.9,224.143 324.375,225.274C318.675,227.827 313.049,230.524 307.496,233.357L328.221,247.979L331.988,221.985ZM566.61,245.147L586.83,231.769C577.208,226.92 567.384,222.503 557.363,218.574L566.61,245.147ZM366.37,236.969C374.87,234.354 383.479,232.104 392.183,230.257L375.984,210.056L366.37,236.969ZM501.301,229.721C510.358,231.529 519.327,233.771 528.168,236.418L520.225,211.159L501.301,229.721ZM371.179,208.644C361.302,211.288 351.526,214.428 341.896,218.057L362.031,234.252L371.179,208.644ZM532.349,233.046L550.444,215.951C547.249,214.781 544.035,213.662 540.801,212.593C535.373,210.801 529.899,209.177 524.385,207.722L532.349,233.046ZM468.98,225.187C478.259,225.936 487.494,227.161 496.647,228.831L485.118,203.999L468.98,225.187ZM399.827,228.745C407.712,227.297 415.669,226.186 423.688,225.439L410.023,204.246L399.827,228.745ZM405.762,201.473C396.98,202.774 388.236,204.459 379.561,206.525L395.425,226.308L405.762,201.473ZM429.168,224.986C433.503,224.674 437.856,224.469 442.224,224.377C444.311,224.332 446.399,224.316 448.487,224.317C453.672,224.337 458.852,224.51 464.021,224.832L447.546,201.956L429.168,224.986ZM499.94,224.052L518.181,206.159C508.59,203.858 498.891,202.06 489.126,200.758L499.94,224.052ZM444.109,198.248C433.899,198.455 423.684,199.183 413.509,200.426L426.407,220.43L444.109,198.248ZM466.675,219.961L481.96,199.893C471.685,198.782 461.347,198.216 450.994,198.187L466.675,219.961Z" style="fill:rgb(254,254,254);stroke:rgb(102,102,102);stroke-width:1.46px;"/>
                        </g>
                    </g>
                    <g id="Queen-Elizabeth-Bridge" serif:id="Queen Elizabeth Bridge" transform="matrix(0.847971,0,0,0.847971,848.759,-56.8206)">
                        <path d="M4020.05,4379.95L4663.81,4059.89L5360.11,4206.11L5991.49,4257.13L6525.89,4254.62L7314.7,4112.88L7652.89,4007.43L8470.03,4369.86L8531.34,4793.65L7339.59,4697.41L5990.34,4651.81L4801.16,4685.89L4019.01,4751.03L4020.05,4379.95Z" style="fill:white;stroke:black;stroke-width:12.28px;"/>
                        <g id="Queen-Elizabeth-Bridge1" serif:id="Queen Elizabeth Bridge" transform="matrix(2.10407,0,0,4.11015,3985.53,3951.68)">
                            <path d="M85.883,93.305L-1.419,115.767L-6.797,100.698L316.026,17.45L317.93,17.023L319.88,17.07C692.853,71.956 1070.72,86.015 1443.62,47.99C1543.34,37.822 1642.87,23.926 1741.38,6.472L1742.97,6.352C1743.5,6.419 1744.03,6.485 1744.56,6.552L2151.73,99.826L2148.16,115.422L2075.65,98.811C2073.55,100.926 2073.87,103.031 2076.97,105.721L2152.05,185.758C2157.04,188.15 2162.54,187.703 2168.27,185.964C2169.05,191.021 2171.64,195.607 2176.16,198.479L2177.4,198.543L2177.37,199.177C2177.94,199.48 2178.54,199.758 2179.17,200.008L2177.33,199.944L2176.57,214.521C2030.5,206.895 1897.63,200.445 1750.63,195.329L1753.91,294.528L1762.47,297.53C1762.47,297.53 1761.46,332.721 1761.46,352.444L1696.83,350.659L1697.46,297.109L1704.8,295.686L1712.83,194.894C1478.64,186.866 1255.02,182.235 1020.16,181.636C790.054,181.049 572.167,184.303 342.64,192.097L345.964,295.132L354.52,298.134C354.52,298.134 353.511,333.325 353.511,353.048L290.308,351.262L290.943,297.713L298.279,296.29L306.397,192.525C221.843,195.457 148.795,199.008 64.483,203.211C45.123,204.176 25.765,205.179 6.408,206.212L5.556,190.234C6.884,190.163 8.212,190.093 9.54,190.022L-16.316,190.496C-9.94,187.854 -6.45,183.404 -5.589,177.306C0.164,178.968 5.669,179.342 10.626,176.882L84.028,99.524C86.748,97.1 87.284,95.167 85.883,93.305ZM2147.4,196.992C2148.37,194.864 2147.32,191.799 2146.28,189.379L2069.12,108.166C2065.84,103.003 2062.08,100.414 2057.92,100.008L2057.32,179.225C2057.46,179.856 2057.13,182.585 2058.15,182.274C2058.39,188.594 2063.94,191.072 2069.24,193.105C2095.29,194.361 2121.34,195.658 2147.4,196.992ZM2039.73,191.699C2041.05,189.569 2039.94,186.259 2038.83,183.68L1961.67,82.468C1958.12,77.814 1954.43,74.871 1950.47,75.31L1949.87,173.604C1949.93,173.88 1949.99,174.153 1950.05,174.423C1951.14,174.195 1952.25,173.905 1953.36,173.568C1954.31,179.653 1957.85,185.056 1964.27,187.612C1964.27,187.612 2011.09,190.352 2039.73,191.699ZM96.445,185.673C99.67,185.292 104.135,180.624 104.2,175.364L103.102,93.554C99.238,94.147 95.508,96.951 91.905,101.863L16.442,180.425C15.138,183.578 13.833,187.812 16.891,189.633C42.081,188.307 71.25,186.883 96.445,185.673ZM1852.54,182.751C1853.04,182.956 1930.58,186.448 1930.58,186.448C1934.21,184.741 1932.79,180.268 1931.38,176.982L1854.22,58.77C1850.53,51.923 1846.79,50.197 1843.02,50.612L1842.42,168.829C1842.62,169.797 1842.86,170.723 1843.14,171.608C1841.31,173.486 1846.01,181.986 1852.54,182.751ZM200.547,180.887C204.701,182.651 214.984,175.013 213.079,165.768L211.165,66.195C206.444,66.347 202.828,69.425 199.968,74.504L124.504,176.066C122.019,179.106 120.814,182.622 123.893,184.351C150.413,183.128 200.547,180.887 200.547,180.887ZM1823.92,174.284C1823.92,174.284 1746.8,34.43 1746.73,34.912C1741.43,30.088 1738.51,31.814 1735.56,33.948L1734.97,166.131C1736.3,172.588 1739.35,177.226 1744.54,179.568C1771.26,180.505 1797.97,181.486 1824.68,182.511C1826.22,180.393 1825.07,176.948 1823.92,174.284ZM1967.44,74.024C1966.24,75.843 1966.86,77.718 1969.52,80.023L2044.6,180.06C2046.89,182.204 2049.21,183.163 2051.4,181.698L2051.13,100.12C2051.25,96.709 2049.77,94.13 2046.97,92.241L1967.44,74.024ZM232.835,179.684C263.024,178.488 310.457,176.376 310.457,176.376C316.014,174.691 320.633,169.436 322.142,162.151L321.795,45.563C318.866,41.63 315.226,41.222 310.595,45.721L233.437,171.257C230.025,174.23 228.536,177.841 232.835,179.684ZM1728.78,38.437L1655.32,168.766C1652.01,171.635 1651.87,173.838 1654.45,176.097C1654.45,176.097 1691.53,177.752 1720.07,178.723C1723.68,176.962 1726.8,174.119 1729.04,169.229L1728.78,38.437ZM333.197,48.967C331.952,46.189 327.823,47.025 328.323,49.445L328.067,165.249C330.794,171.195 335.315,174.254 339.608,175.788C361.168,175.068 382.727,174.388 404.285,173.747C406.456,171.611 406.161,169.491 403.027,166.774L333.197,48.967ZM1629.78,49.886C1626.32,47.024 1623.19,48.614 1620.25,51.455L1545.17,166.742C1542.2,169.315 1541.78,171.353 1543.59,173.376C1570.58,174.092 1597.57,174.855 1624.57,175.665L1629.48,166.367L1629.78,49.886ZM1860.61,49.551C1858.65,51.62 1859.03,53.692 1862.06,56.325L1937.14,173.362C1939.32,174.405 1941.59,174.908 1943.94,175L1943.68,75.422C1943.36,72.162 1941.88,69.636 1939.57,67.638L1860.61,49.551ZM193.644,65.578L113.691,86.15C111.604,86.387 110.364,88.931 109.897,93.575L110.575,172.452C110.557,174.833 115.682,175.749 118.688,172.523L192.09,72.164C194.99,69.581 195.408,67.555 193.644,65.578ZM428.867,164.375C428.903,168.579 430.066,171.737 433.372,172.906C459.726,172.167 486.077,171.485 512.427,170.861C514.494,168.756 514.163,166.659 511.075,163.982L436.827,62.418C434.099,58.654 431.067,57.834 427.7,59.447L428.867,164.375ZM1519.85,67.047C1516.45,66.726 1513.18,67.122 1510.1,68.597L1435.02,163.884C1431.95,166.545 1431.61,168.633 1433.63,170.725C1460.74,171.313 1487.84,171.95 1514.95,172.635L1519.33,164.343L1519.85,67.047ZM1752.77,24.847C1752.57,24.99 1752.37,25.137 1752.18,25.286C1751.51,26.904 1752.27,28.599 1754.61,30.627L1829.69,170.664C1831.94,173.999 1834.1,173.442 1836.32,172.294C1836.38,172.173 1836.44,172.051 1836.49,171.927L1836.22,50.724C1836.3,48.012 1835.74,45.365 1832.16,43.034L1752.77,24.847ZM536.915,161.583C536.564,168.124 538.273,170.615 541.463,170.196C568.508,169.599 595.55,169.061 622.589,168.583C623.932,166.712 623.36,164.796 620.624,162.424L543.597,71.412C541.246,70.284 538.782,69.788 536.234,69.76L536.915,161.583ZM1409.7,78.189C1406.61,75.506 1403.27,76.426 1399.95,79.738L1324.88,162.026C1321.94,164.574 1321.5,166.597 1323.24,168.601C1350.36,169.055 1377.49,169.56 1404.63,170.114L1409.18,161.485L1409.7,78.189ZM304.641,37.019L222.015,58.278C218.956,59.775 217.984,62.676 217.96,66.216L219.045,168.786C219.137,168.98 219.231,169.171 219.327,169.358C222.142,169.527 224.766,169.029 227.669,167.637L302.749,43.276C305.534,40.863 306.077,38.92 304.641,37.019ZM1299.55,87.331C1296.09,86.278 1292.85,86.954 1289.81,88.88L1214.73,160.167C1211.64,162.839 1211.31,164.933 1213.36,167.034C1240.41,167.351 1267.47,167.72 1294.54,168.138L1299.04,159.626L1299.55,87.331ZM731.749,166.966C733.563,164.941 733.144,162.902 730.173,160.326L655.093,82.893C650.987,78.561 647.576,77.287 645.951,81.295L646.464,160.025C645.2,164.317 646.9,166.844 650.731,168.105C677.741,167.668 704.748,167.288 731.749,166.966ZM1189.41,92.473C1186.01,92.151 1182.74,92.547 1179.66,94.022L1104.58,160.309C1101.35,162.968 1102.43,164.639 1103.99,165.967C1131.26,166.145 1156.88,166.428 1184.16,166.711C1188.2,165.411 1189.7,162.378 1188.89,157.768L1189.41,92.473ZM841.646,165.965C843.04,164.077 842.484,162.146 839.722,159.751L764.642,89.464C760.855,87.216 757.273,86.7 754.352,87.972L756.013,157.927C755.589,162.39 757.423,165.057 760.615,166.643C787.631,166.36 814.642,166.135 841.646,165.965ZM1724.85,25.608C1699,30.069 1673.14,34.27 1647.26,38.215L1647.37,38.205C1640.96,40.76 1637.41,45.164 1636.47,51.249C1636.28,51.189 1636.08,51.132 1635.88,51.075C1635.82,51.339 1635.76,51.606 1635.71,51.876L1636.28,166.479C1638.6,168.876 1642.14,169.15 1647.47,166.321L1724.63,31.943C1725.18,30.654 1725.74,29.184 1725.99,27.769L1724.85,25.608ZM950.301,165.473C951.878,163.989 953.671,162.393 950.271,159.937L875.191,95.65C870.578,92.359 867.08,91.879 865.042,94.142L865.561,157.352C865.262,161.883 866.693,164.756 870.026,165.806C881.808,165.749 893.59,165.702 905.37,165.666C921.1,165.617 934.57,165.485 950.301,165.473ZM1060.38,165.785C1062.21,163.752 1061.8,161.708 1058.82,159.123L983.739,97.836C981.147,96.593 978.418,96.117 975.59,96.19L976.11,157.538C975.381,162.612 977.091,164.959 980.353,165.574C1007.02,165.593 1033.69,165.663 1060.38,165.785ZM335.631,35.529C335.279,37.547 336.17,40.073 337.054,42.132L410.873,164.329C415.368,166.604 419.245,167.074 422.073,164.487L421.746,59.966L421.727,59.876C421.323,52.36 417.306,46.819 410.061,45.742C410.061,45.742 360.896,39.158 335.631,35.529ZM1615.76,42.892C1586.25,47.155 1536.12,54.531 1535.52,54.793C1531.88,54.429 1524.35,62.013 1526.32,68.391C1526.19,68.349 1526.05,68.309 1525.91,68.269C1525.87,68.473 1525.82,68.678 1525.78,68.885L1526.13,164.455C1528.35,166.95 1531.74,167.485 1537.33,164.297L1614.48,47.834C1615.48,45.526 1616.5,44.117 1615.76,42.892ZM442.628,49.78C439.979,51.729 441.294,55.768 442.595,58.798L518.921,161.537C523.107,163.634 526.777,163.404 530.121,161.695L530.453,69.562C532.085,66.102 527.902,58.677 516.894,58.333C492.109,55.665 467.349,52.812 442.628,49.78ZM1505.42,57.29C1478.83,60.391 1452.23,63.229 1425.62,65.808L1427.32,65.803C1426.65,66.003 1426.02,66.235 1425.42,66.497L1427.08,66.488C1420.67,69.044 1417.12,73.447 1416.17,79.533C1416.04,79.491 1415.9,79.451 1415.77,79.411C1415.72,79.614 1415.67,79.82 1415.63,80.027L1415.98,161.597C1417.33,165.296 1420.99,165.363 1427.18,161.439L1504.34,64.976C1505.39,62.528 1506.45,59.421 1505.42,57.29ZM548.569,61.64C547.084,63.192 548.229,65.148 549.364,67.791L628.47,159.979C632.157,161.223 635.874,161.69 639.67,160.137L639.863,80.916C640.361,75.051 636.954,69.303 628.779,69.592C628.779,69.592 617.823,68.147 612.153,67.649C590.951,65.787 569.754,63.783 548.569,61.64ZM1395.36,68.629C1369.03,70.987 1342.69,73.091 1316.35,74.947L1317.17,74.944C1316.51,75.145 1315.88,75.376 1315.27,75.638L1316.93,75.63C1310.52,78.186 1306.97,82.589 1306.03,88.674C1305.89,88.633 1305.75,88.592 1305.62,88.553C1305.57,88.756 1305.53,88.962 1305.48,89.169L1305.83,159.739C1308.29,163.87 1311.75,164.693 1317.03,159.581L1394.19,76.118C1395.21,73.745 1396.24,70.751 1395.36,68.629ZM660.285,71.631C657.592,73.61 658.688,76.605 660.861,79.273L738.019,157.881C742.132,159.599 745.934,159.953 749.218,158.039L748.421,90.862C746.999,83.995 743.647,79.186 737.828,77.006C711.972,75.429 686.124,73.636 660.285,71.631ZM1174.88,82.535C1141.67,83.763 1097.23,85.136 1097.23,85.136C1096.88,85.235 1096.53,85.339 1096.19,85.451C1090.12,87.556 1086.64,92.428 1085.19,99.453L1085.53,158.022C1089,158.755 1092.65,158.951 1096.73,157.864L1173.89,90.402C1174.97,87.883 1176.06,84.668 1174.88,82.535ZM1284.81,77.049C1258.71,78.691 1232.62,80.089 1206.51,81.248C1201.44,82.948 1198.15,86.552 1196.33,91.711C1196.14,92.389 1195.99,93.091 1195.88,93.816L1195.7,93.762C1195.57,94.266 1195.44,94.782 1195.34,95.311L1195.68,157.881C1199.04,160.009 1202.66,160.647 1206.88,157.723L1284.04,85.26C1285.18,82.602 1286.33,79.168 1284.81,77.049ZM880.451,83.495C878.543,85.573 879.757,89.232 880.958,92.03L958.116,157.492C961.495,159.521 965.247,159.469 969.316,157.65L969.663,95.197C970.597,91.565 964.771,84.247 957.903,85.142C932.083,84.816 906.265,84.266 880.451,83.495ZM769.084,78.807C768.504,80.888 769.461,83.634 770.409,85.844L847.568,157.306C851.39,158.373 855.179,159.061 858.767,157.464L859.114,96.895C857.605,89.61 853.924,84.64 847.429,82.67L848.728,82.674C848.522,82.585 848.313,82.498 848.101,82.413C821.756,81.439 795.416,80.236 769.084,78.807ZM1066.95,85.177C1041.05,85.489 1015.15,85.572 989.258,85.427C986.99,87.45 988.255,91.3 989.507,94.216L1066.66,156.678C1070.36,158.267 1074.08,159.121 1077.87,156.836L1078.21,99.267C1077.14,94.093 1074.97,90.088 1071.48,87.495C1069.82,86.535 1068.03,85.846 1066.17,85.322L1067.36,85.318C1067.23,85.27 1067.09,85.223 1066.95,85.177Z" style="fill:white;stroke:rgb(128,128,128);stroke-width:3.76px;"/>
                        </g>
                    </g>
                    <g id="High-Level-bridge" serif:id="High Level bridge" transform="matrix(7.24244,0,0,7.26321,2862.18,-637.36)">
                        <g>
                            <g transform="matrix(1,0,0,1.09115,-0.611825,133.09)">
                                <path d="M13.901,327.596L885.7,323.413L886.586,364.34L-1.338,368.048L13.901,327.596Z" style="fill:white;stroke:rgb(102,102,102);stroke-width:1.37px;"/>
                            </g>
                            <g transform="matrix(0.138075,0,0,0.13768,-395.195,87.7518)">
                                <path d="M3593.37,4096.33L3641.72,4096.33L3641.72,4281.65L3710.05,4281.65L3710.05,4637.22L3251.72,4637.22L3251.72,4281.65L3320.44,4281.65L3320.44,4096.33L3376.22,4096.33L3376.22,3268.45L3593.37,3268.45L3593.37,4096.33ZM5324.52,4072.12L5372.86,4072.12L5369.24,4280.23L5429.48,4279.73L5429.48,4637.22L5002.52,4637.22L5002.52,4281.65L5051.59,4281.65L5051.59,4072.12L5107.36,4072.12L5107.36,3244.25L5324.52,3244.25L5324.52,4072.12ZM6211.06,4059.48L6259.4,4059.48L6260.85,4276.28L6326.36,4276.86L6326.36,4637.22L5880.64,4637.22L5880.64,4277.27L5936.25,4276.95L5938.12,4059.48L5993.9,4059.48L5993.9,3231.61L6211.06,3231.61L6211.06,4059.48ZM7091.21,4065.28L7139.55,4065.28L7139.55,4281.65L7208.14,4281.65L7208.14,4637.22L6761,4637.22L6761,4278.81L6823.43,4278.84L6818.28,4065.28L6874.06,4065.28L6874.06,3237.41L7091.21,3237.41L7091.21,4065.28ZM7985.12,4040.66L8033.46,4040.66L8033.46,4281.65L8099.83,4281.65L8099.83,4637.22L7643.02,4637.22L7643.02,4281.65L7712.19,4281.65L7712.19,4040.66L7767.96,4040.66L7767.96,3212.79L7985.12,3212.79L7985.12,4040.66ZM4454.82,4084.17L4503.17,4084.17L4503.17,4281.65L4562.84,4281.65L4562.84,4637.22L4124.62,4637.22L4124.62,4281.65L4181.89,4281.65L4181.89,4084.17L4237.67,4084.17L4237.67,3256.3L4454.82,3256.3L4454.82,4084.17ZM8846.45,4034.24L8894.79,4034.24L8894.79,4281.65L8977.03,4281.65L8977.03,4637.22L8498.13,4637.22L8498.13,4281.65L8573.51,4281.65L8573.51,4034.24L8629.29,4034.24L8629.29,3206.37L8846.45,3206.37L8846.45,4034.24Z" style="fill:rgb(254,254,254);stroke:rgb(102,102,102);stroke-width:10.42px;stroke-linecap:square;"/>
                            </g>
                            <g transform="matrix(1,0,0,1,120.492,-0.948415)">
                                <g transform="matrix(1,0,0,1,-1.2078,0.760642)">
                                    <rect x="102.436" y="490.227" width="3" height="43.584" style="fill:rgb(254,254,254);stroke:rgb(102,102,102);stroke-width:1.44px;stroke-linecap:butt;stroke-miterlimit:1.41421;"/>
                                </g>
                                <g transform="matrix(1,0,0,1,33.7922,0.760642)">
                                    <rect x="102.436" y="490.227" width="3" height="43.584" style="fill:rgb(254,254,254);stroke:rgb(102,102,102);stroke-width:1.44px;stroke-linecap:butt;stroke-miterlimit:1.41421;"/>
                                </g>
                                <g transform="matrix(1,0,0,1,11,0)">
                                    <rect x="102.436" y="490.227" width="3" height="43.584" style="fill:rgb(254,254,254);stroke:rgb(102,102,102);stroke-width:1.44px;stroke-linecap:butt;stroke-miterlimit:1.41421;"/>
                                </g>
                                <g transform="matrix(1,0,0,1,46,0)">
                                    <rect x="102.436" y="490.227" width="3" height="43.584" style="fill:rgb(254,254,254);stroke:rgb(102,102,102);stroke-width:1.44px;stroke-linecap:butt;stroke-miterlimit:1.41421;"/>
                                </g>
                                <g transform="matrix(1,0,0,1,71,0)">
                                    <rect x="102.436" y="490.227" width="3" height="43.584" style="fill:rgb(254,254,254);stroke:rgb(102,102,102);stroke-width:1.44px;stroke-linecap:butt;stroke-miterlimit:1.41421;"/>
                                </g>
                                <g transform="matrix(1,0,0,1,23.2355,0.507625)">
                                    <rect x="102.436" y="490.227" width="3" height="43.584" style="fill:rgb(254,254,254);stroke:rgb(102,102,102);stroke-width:1.44px;stroke-linecap:butt;stroke-miterlimit:1.41421;"/>
                                </g>
                                <g transform="matrix(1,0,0,1,58.2355,0.507625)">
                                    <rect x="102.436" y="490.227" width="3" height="43.584" style="fill:rgb(254,254,254);stroke:rgb(102,102,102);stroke-width:1.44px;stroke-linecap:butt;stroke-miterlimit:1.41421;"/>
                                </g>
                                <g transform="matrix(1,0,0,1,83.2355,0.507625)">
                                    <rect x="102.436" y="490.227" width="3" height="43.584" style="fill:rgb(254,254,254);stroke:rgb(102,102,102);stroke-width:1.44px;stroke-linecap:butt;stroke-miterlimit:1.41421;"/>
                                </g>
                            </g>
                            <g transform="matrix(1,0,0,1,240.983,-1.89683)">
                                <g transform="matrix(1,0,0,1,-1.2078,0.760642)">
                                    <rect x="102.436" y="490.227" width="3" height="43.584" style="fill:rgb(254,254,254);stroke:rgb(102,102,102);stroke-width:1.44px;stroke-linecap:butt;stroke-miterlimit:1.41421;"/>
                                </g>
                                <g transform="matrix(1,0,0,1,33.7922,0.760642)">
                                    <rect x="102.436" y="490.227" width="3" height="43.584" style="fill:rgb(254,254,254);stroke:rgb(102,102,102);stroke-width:1.44px;stroke-linecap:butt;stroke-miterlimit:1.41421;"/>
                                </g>
                                <g transform="matrix(1,0,0,1,11,0)">
                                    <rect x="102.436" y="490.227" width="3" height="43.584" style="fill:rgb(254,254,254);stroke:rgb(102,102,102);stroke-width:1.44px;stroke-linecap:butt;stroke-miterlimit:1.41421;"/>
                                </g>
                                <g transform="matrix(1,0,0,1,46,0)">
                                    <rect x="102.436" y="490.227" width="3" height="43.584" style="fill:rgb(254,254,254);stroke:rgb(102,102,102);stroke-width:1.44px;stroke-linecap:butt;stroke-miterlimit:1.41421;"/>
                                </g>
                                <g transform="matrix(1,0,0,1,71,0)">
                                    <rect x="102.436" y="490.227" width="3" height="43.584" style="fill:rgb(254,254,254);stroke:rgb(102,102,102);stroke-width:1.44px;stroke-linecap:butt;stroke-miterlimit:1.41421;"/>
                                </g>
                                <g transform="matrix(1,0,0,1,23.2355,0.507625)">
                                    <rect x="102.436" y="490.227" width="3" height="43.584" style="fill:rgb(254,254,254);stroke:rgb(102,102,102);stroke-width:1.44px;stroke-linecap:butt;stroke-miterlimit:1.41421;"/>
                                </g>
                                <g transform="matrix(1,0,0,1,58.2355,0.507625)">
                                    <rect x="102.436" y="490.227" width="3" height="43.584" style="fill:rgb(254,254,254);stroke:rgb(102,102,102);stroke-width:1.44px;stroke-linecap:butt;stroke-miterlimit:1.41421;"/>
                                </g>
                                <g transform="matrix(1,0,0,1,83.2355,0.507625)">
                                    <rect x="102.436" y="490.227" width="3" height="43.584" style="fill:rgb(254,254,254);stroke:rgb(102,102,102);stroke-width:1.44px;stroke-linecap:butt;stroke-miterlimit:1.41421;"/>
                                </g>
                            </g>
                            <g transform="matrix(1,0,0,1,362.475,-2.84525)">
                                <g transform="matrix(1,0,0,1,-1.2078,0.760642)">
                                    <rect x="102.436" y="490.227" width="3" height="43.584" style="fill:rgb(254,254,254);stroke:rgb(102,102,102);stroke-width:1.44px;stroke-linecap:butt;stroke-miterlimit:1.41421;"/>
                                </g>
                                <g transform="matrix(1,0,0,1,33.7922,0.760642)">
                                    <rect x="102.436" y="490.227" width="3" height="43.584" style="fill:rgb(254,254,254);stroke:rgb(102,102,102);stroke-width:1.44px;stroke-linecap:butt;stroke-miterlimit:1.41421;"/>
                                </g>
                                <g transform="matrix(1,0,0,1,11,0)">
                                    <rect x="102.436" y="490.227" width="3" height="43.584" style="fill:rgb(254,254,254);stroke:rgb(102,102,102);stroke-width:1.44px;stroke-linecap:butt;stroke-miterlimit:1.41421;"/>
                                </g>
                                <g transform="matrix(1,0,0,1,46,0)">
                                    <rect x="102.436" y="490.227" width="3" height="43.584" style="fill:rgb(254,254,254);stroke:rgb(102,102,102);stroke-width:1.44px;stroke-linecap:butt;stroke-miterlimit:1.41421;"/>
                                </g>
                                <g transform="matrix(1,0,0,1,71,0)">
                                    <rect x="102.436" y="490.227" width="3" height="43.584" style="fill:rgb(254,254,254);stroke:rgb(102,102,102);stroke-width:1.44px;stroke-linecap:butt;stroke-miterlimit:1.41421;"/>
                                </g>
                                <g transform="matrix(1,0,0,1,23.2355,0.507625)">
                                    <rect x="102.436" y="490.227" width="3" height="43.584" style="fill:rgb(254,254,254);stroke:rgb(102,102,102);stroke-width:1.44px;stroke-linecap:butt;stroke-miterlimit:1.41421;"/>
                                </g>
                                <g transform="matrix(1,0,0,1,58.2355,0.507625)">
                                    <rect x="102.436" y="490.227" width="3" height="43.584" style="fill:rgb(254,254,254);stroke:rgb(102,102,102);stroke-width:1.44px;stroke-linecap:butt;stroke-miterlimit:1.41421;"/>
                                </g>
                                <g transform="matrix(1,0,0,1,83.2355,0.507625)">
                                    <rect x="102.436" y="490.227" width="3" height="43.584" style="fill:rgb(254,254,254);stroke:rgb(102,102,102);stroke-width:1.44px;stroke-linecap:butt;stroke-miterlimit:1.41421;"/>
                                </g>
                            </g>
                            <g transform="matrix(1,0,0,1,484.967,-3.79366)">
                                <g transform="matrix(1,0,0,1,-1.2078,0.760642)">
                                    <rect x="102.436" y="490.227" width="3" height="43.584" style="fill:rgb(254,254,254);stroke:rgb(102,102,102);stroke-width:1.44px;stroke-linecap:butt;stroke-miterlimit:1.41421;"/>
                                </g>
                                <g transform="matrix(1,0,0,1,33.7922,0.760642)">
                                    <rect x="102.436" y="490.227" width="3" height="43.584" style="fill:rgb(254,254,254);stroke:rgb(102,102,102);stroke-width:1.44px;stroke-linecap:butt;stroke-miterlimit:1.41421;"/>
                                </g>
                                <g transform="matrix(1,0,0,1,11,0)">
                                    <rect x="102.436" y="490.227" width="3" height="43.584" style="fill:rgb(254,254,254);stroke:rgb(102,102,102);stroke-width:1.44px;stroke-linecap:butt;stroke-miterlimit:1.41421;"/>
                                </g>
                                <g transform="matrix(1,0,0,1,46,0)">
                                    <rect x="102.436" y="490.227" width="3" height="43.584" style="fill:rgb(254,254,254);stroke:rgb(102,102,102);stroke-width:1.44px;stroke-linecap:butt;stroke-miterlimit:1.41421;"/>
                                </g>
                                <g transform="matrix(1,0,0,1,71,0)">
                                    <rect x="102.436" y="490.227" width="3" height="43.584" style="fill:rgb(254,254,254);stroke:rgb(102,102,102);stroke-width:1.44px;stroke-linecap:butt;stroke-miterlimit:1.41421;"/>
                                </g>
                                <g transform="matrix(1,0,0,1,23.2355,0.507625)">
                                    <rect x="102.436" y="490.227" width="3" height="43.584" style="fill:rgb(254,254,254);stroke:rgb(102,102,102);stroke-width:1.44px;stroke-linecap:butt;stroke-miterlimit:1.41421;"/>
                                </g>
                                <g transform="matrix(1,0,0,1,58.2355,0.507625)">
                                    <rect x="102.436" y="490.227" width="3" height="43.584" style="fill:rgb(254,254,254);stroke:rgb(102,102,102);stroke-width:1.44px;stroke-linecap:butt;stroke-miterlimit:1.41421;"/>
                                </g>
                                <g transform="matrix(1,0,0,1,83.2355,0.507625)">
                                    <rect x="102.436" y="490.227" width="3" height="43.584" style="fill:rgb(254,254,254);stroke:rgb(102,102,102);stroke-width:1.44px;stroke-linecap:butt;stroke-miterlimit:1.41421;"/>
                                </g>
                            </g>
                            <path d="M693.791,526.025C709.12,508.938 727.967,494.724 752.267,494.277C752.683,494.271 753.099,494.269 753.515,494.27C777.883,494.438 800.207,510.916 815.619,527.479L817.799,529.841L814.125,533.232L811.952,530.877C797.39,515.228 779.633,501.331 757.838,499.466C733.918,497.421 711.356,513.403 695.689,531.429L693.619,533.832L689.831,530.568L690.469,529.827C675.489,514.56 657.437,502.232 635.48,500.373C611.567,498.349 588.383,511.685 572.462,530.442L573.305,531.272L569.796,534.834L567.495,532.568C547.768,513.278 523.782,495.8 495.062,500.09C477.353,502.735 462.083,514.795 450.636,529.211L450.875,529.455L449.088,531.205L447.779,532.919L447.531,532.73L447.303,532.953L445.757,531.375L443.805,529.884L444.013,529.613C427.406,513.09 406.804,499.493 382.58,501.051C361.53,502.405 342.634,515.927 328.265,531.65L326.145,533.99L324.183,532.212L324.159,532.235C324.037,532.109 323.914,531.982 323.79,531.856L322.44,530.633L322.506,530.56C306.285,514.409 285.403,502.093 261.836,503.125C241.28,504.025 222.055,515.592 208.175,530.925L206.098,533.244L205.85,533.023L203.451,535.653L201.116,533.524C183.586,517.656 162.459,504.467 138.302,506.404C118.749,507.972 101.028,520.132 87.21,534.418L85.05,536.67L81.442,533.209L83.609,530.95C99.117,514.916 118.088,501.628 141.983,501.226C142.384,501.221 142.785,501.218 143.187,501.219C165.954,501.356 187.125,514.392 203.359,528.82C219.177,511.562 240.113,498.38 263.884,498.068C264.22,498.064 264.556,498.063 264.892,498.063C287.66,498.176 309.479,510.074 325.591,526.528L325.898,526.845C341.458,510.197 360.702,496.29 385.507,495.937C385.84,495.934 386.174,495.932 386.507,495.933C409.577,496.07 431.102,509.904 447.133,525.669C460.831,508.909 478.356,494.831 502.351,494.504C502.688,494.501 503.026,494.5 503.363,494.501C528.876,494.687 552.107,511.031 568.913,526.991C584.746,509.005 605.528,495.361 629.606,495.145C629.868,495.144 630.13,495.144 630.393,495.144C654.413,495.3 677.403,508.99 693.791,526.025Z" style="fill:rgb(254,254,254);fill-rule:nonzero;stroke:rgb(102,102,102);stroke-width:1.44px;stroke-linecap:butt;stroke-miterlimit:1.41421;"/>
                            <path d="M80.78,537.463L10.846,537.615L9.818,537.401L8.968,536.784L8.447,535.872L8.346,534.827L8.684,533.832L36.084,487.985L36.641,487.338C37.38,486.918 37.388,486.915 38.225,486.768L851.212,485.206C851.216,486.873 851.22,488.54 851.223,490.206L696.561,490.453L696.561,528.443L881.715,527.495L881.747,532.495L815.997,532.663L815.997,644.421L807.117,644.421L807.117,532.721L696.561,533.443L696.561,645.524L687.681,645.524L687.681,533.501L573.125,534.249L573.125,644.627L564.245,644.627L564.245,534.307L451.689,535.041L451.689,643.73L442.809,643.73L442.809,535.099L329.253,535.841L329.253,644.833L320.373,644.833L320.373,535.899L208.817,536.627L208.817,647.937L199.937,647.937L199.937,536.685L90.532,537.399L90.532,648.817L80.78,648.817L80.78,537.463ZM320.373,491.262L39.65,491.765L15.253,532.586L199.937,531.685L199.937,491.599L208.817,491.599L208.817,531.627L320.373,530.899L320.373,491.262ZM329.253,491.242L329.253,530.841L442.809,530.099L442.809,490.998L329.253,491.242ZM451.689,490.979L451.689,530.041L564.245,529.307L564.245,490.737L451.689,490.979ZM573.125,490.718L573.125,529.249L687.681,528.501L687.681,490.472L573.125,490.718Z" style="fill:rgb(254,254,254);stroke:rgb(102,102,102);stroke-width:1.44px;stroke-linecap:square;"/>
                        </g>
                    </g>
                    <g id="Swing-Bridge" serif:id="Swing Bridge" transform="matrix(6.03806,0,0,10.757,3397.79,-1913.11)">
                        <g>
                            <g transform="matrix(1,0,0,1.09115,-0.611825,-9.29697)">
                                <path d="M1.678,669.486L199.188,669.881C369.951,597.279 539.159,597.278 706.789,670.896L889.926,671.262L894.097,685.771L1.407,685.232L1.678,669.486Z" style="fill:white;stroke:black;stroke-width:1.12px;"/>
                            </g>
                            <path d="M447.442,594.428L406.128,601.866L406.128,636.337L489.849,636.337L489.025,602.78L447.442,594.428Z" style="fill:rgb(254,254,254);stroke:rgb(102,102,102);stroke-width:1.19px;stroke-linecap:square;"/>
                            <path d="M495.233,657.204L400.266,657.204L400.266,633.008L423.241,630.334L423.241,612.004L409.592,614.004L409.592,606.734L436.1,601.245L436.1,581.174L447.129,564.72L447.153,564.396L447.25,564.54L447.346,564.396L447.37,564.72L458.399,581.174L458.399,601.245L484.907,606.734L484.907,614.004L471.258,612.004L471.258,630.334L495.233,633.008L495.233,657.204Z" style="fill:rgb(254,254,254);stroke:rgb(102,102,102);stroke-width:1.19px;stroke-linecap:square;"/>
                            <path d="M250.082,690.538C314.246,666.617 382.792,652.993 449.748,652.839C450.447,652.839 451.146,652.839 451.845,652.84C491.131,652.96 530.76,657.666 569.659,666.094L572.401,666.695C622.246,677.728 670.847,694.85 715.936,716.237L720.237,718.285L893.689,718.067C893.697,723.9 893.704,729.734 893.711,735.567L758.767,735.735L758.767,810.831L720.382,810.831L720.382,735.782L173.716,736.462L173.716,812.769L135.331,812.769L135.331,736.51L3.737,736.673L3.716,719.173L185.259,718.945L189.355,716.894C207.528,707.837 226.267,699.61 245.413,692.3L250.082,690.538ZM245.413,709.41C234.541,713.803 223.968,718.345 214.038,722.786L245.413,722.649L245.413,709.41ZM281.68,695.875C273.334,698.701 264.947,701.767 256.663,704.965L256.663,722.6L281.68,722.49L281.68,695.875ZM319.835,684.799C318.883,685.024 317.932,685.251 316.981,685.482C309.161,687.376 301.098,689.652 292.93,692.207L292.93,722.441L319.835,722.324L319.835,684.799ZM357.725,677.231C348.808,678.69 339.925,680.367 331.085,682.262L331.085,722.275L357.725,722.158L357.725,677.231ZM395.767,672.333C386.812,673.178 377.879,674.236 368.975,675.507L368.975,722.109L395.767,721.992L395.767,672.333ZM438.914,669.898C428.268,670.099 417.631,670.593 407.017,671.384L407.017,721.943L438.914,721.804L438.914,669.898ZM450.164,669.794L450.164,721.755L480.368,721.623L480.368,670.586C470.307,670.063 460.234,669.798 450.164,669.794ZM491.618,671.279L491.618,721.574L522.479,721.439L522.479,674.287C512.218,673.016 501.926,672.012 491.618,671.279ZM533.729,675.79L533.729,721.39L561.151,721.271L561.151,680.371C552.046,678.632 542.902,677.104 533.729,675.79ZM572.401,682.633L572.401,721.221L597.62,721.111L597.62,688.525C589.256,686.379 580.847,684.415 572.401,682.633ZM608.87,691.528L608.87,721.062L631.877,720.962L631.877,698.41C624.254,695.962 616.583,693.668 608.87,691.528ZM643.127,702.147L643.127,720.913L688.207,720.716C677.674,716.195 663.761,709.54 652.98,705.627C649.706,704.438 646.421,703.278 643.127,702.147Z" style="fill:rgb(254,254,254);fill-rule:nonzero;stroke:rgb(102,102,102);stroke-width:1.19px;stroke-linecap:butt;stroke-miterlimit:1.41421;"/>
                            <path d="M386.337,761.498L398.334,761.498L398.334,750.512L409.463,750.512L409.463,735.5L479.935,735.5L479.935,750.512L492.278,750.512L492.278,761.498L507.703,761.498L507.703,810.956L386.337,810.956L386.337,761.498Z" style="fill:rgb(254,254,254);stroke:rgb(102,102,102);stroke-width:1.19px;stroke-linecap:square;"/>
                        </g>
                    </g>
                    <g id="Millenium-Bridge" serif:id="Millenium Bridge" transform="matrix(10.7051,0,0,10.7051,1709.97,5087.96)">
                        <path d="M176.365,246.83L174.307,271.374L223.381,269.536L225.692,241.933C208.855,242.845 192.551,244.825 176.365,246.83ZM640.938,247.472L642.995,271.016L593.922,269.178L591.727,240.708C609.288,242.737 625.596,245.01 640.938,247.472ZM201.512,232.575C222.449,201.348 245.838,169.879 272.082,142.819C296.009,118.148 319.408,99.565 349.56,83.453C365.209,75.091 387.298,69.427 404.927,69.458C431.997,69.581 459.675,74.437 482.014,88.498C499.123,99.266 513.942,111.187 528.461,125.359C547.401,143.846 562.907,160.369 580.628,184.622C589.152,196.287 605.862,218.078 615.576,232.321C621.614,233.289 627.645,234.242 633.677,235.092L634.591,235.219L635.504,235.344L635.486,235.476C628.869,234.571 622.269,233.528 615.675,232.466C616.504,234.306 616.911,235.832 616.939,237.469C620.3,237.984 624.594,238.804 627.952,239.369C636.124,240.745 644.258,242.329 652.346,244.225L653.026,244.386C653.849,244.762 653.858,244.769 654.474,245.432L654.759,247.195L653.713,248.643C653.713,248.643 650.848,248.655 647.863,247.984C616.242,240.947 584.014,237.819 551.712,235.567C447.545,228.308 341.997,231.114 238.118,239.436C208.953,241.772 179.76,244.633 150.871,249.018L149.137,248.59L148.523,247.918C148.216,247.067 148.214,247.055 148.255,246.152L148.642,245.328C149.31,244.718 149.32,244.712 150.171,244.404C166.413,241.939 183.221,239.773 199.636,238.014C200.494,237.922 200.759,233.698 201.512,232.575C188.485,233.758 175.372,235.213 162.354,236.708L161.127,236.85L161.112,236.718C174.58,235.162 188.045,233.797 201.512,232.575ZM233.242,230.066C226.317,230.594 219.394,231.15 212.474,231.74C211.763,232.808 211.055,235.898 210.35,236.958C217.549,236.249 224.762,235.596 231.985,234.994L233.242,230.066ZM586.233,227.986L587.621,233.762C594.109,234.486 600.593,235.29 607.071,236.181C606.951,235.174 606,231.962 604.794,230.715C598.657,229.74 592.375,228.786 586.233,227.986ZM250.124,228.83C244.545,229.223 238.968,229.63 233.392,230.055L232.135,234.981C237.818,234.508 243.508,234.065 249.202,233.651L250.124,228.83ZM569.526,226.199L570.455,232.024C576.132,232.542 581.805,233.113 587.475,233.746L586.233,227.986C582.166,227.458 578.095,226.99 574.02,226.61C572.522,226.47 571.024,226.333 569.526,226.199ZM309.993,225.023C307.438,225.169 304.885,225.319 302.331,225.472C297.485,225.764 292.641,226.058 287.799,226.358L287.264,230.795L287.134,230.766L287.66,226.367C282.129,226.709 276.632,226.923 271.106,227.282L270.599,231.414L270.47,231.382L270.967,227.291C264.075,227.738 257.154,228.335 250.268,228.82L249.346,233.64C269.315,232.187 289.351,231.076 309.409,230.165L309.993,225.023ZM261.797,166.177C243.775,187.241 227.508,209.16 212.565,231.602C219.476,231.014 226.387,230.459 233.3,229.931L261.797,166.177ZM571.656,185.762L586.34,227.887C592.481,228.688 598.6,229.616 604.705,230.581C594.859,215.758 583.487,201.28 571.656,185.762ZM550.808,224.665L551.381,230.484C557.696,230.931 564.007,231.438 570.315,232.012L569.385,226.186C569.05,226.156 568.716,226.127 568.381,226.097C562.527,225.577 556.669,225.101 550.808,224.665ZM276.879,149.739C271.82,154.843 266.893,160.236 262.091,165.834L233.451,229.92C239.022,229.495 244.595,229.088 250.169,228.695L276.879,149.739ZM293.963,133.706C289.959,137.253 285.938,140.962 281.844,144.866C280.246,146.39 278.661,147.945 277.089,149.527L250.312,228.685C257.195,228.201 264.079,227.738 270.967,227.291L293.963,133.706ZM532.086,223.411L532.499,229.318C538.751,229.651 544.999,230.034 551.244,230.475L550.672,224.655C544.48,224.195 538.285,223.781 532.086,223.411ZM334.123,223.729C326.123,224.126 318.125,224.556 310.13,225.015L309.546,230.159C317.579,229.795 325.616,229.463 333.653,229.155L334.123,223.729ZM553.703,163.564L569.492,226.062C570.63,226.164 571.767,226.268 572.903,226.373C577.348,226.783 581.776,227.293 586.194,227.868L571.407,185.436C565.573,177.795 559.629,170.398 553.703,163.564ZM510.834,222.309L511.065,228.367C518.168,228.624 525.268,228.935 532.364,229.311L531.951,223.403C524.916,222.983 517.877,222.619 510.834,222.309ZM311.95,118.788C305.932,123.433 300.053,128.317 294.137,133.552L271.106,227.282C276.632,226.923 282.16,226.574 287.69,226.231L311.95,118.788ZM357.551,222.669C349.785,222.986 342.021,223.338 334.258,223.723L333.788,229.15C335.491,229.084 337.194,229.02 338.897,228.957C344.971,228.731 351.04,228.526 357.108,228.343L357.551,222.669ZM488.32,221.492L488.434,227.719C495.935,227.882 503.435,228.092 510.932,228.362L510.701,222.303C503.244,221.975 495.783,221.706 488.32,221.492ZM384.869,221.71C375.807,221.975 366.746,222.295 357.686,222.663L357.243,228.339C366.329,228.065 375.412,227.839 384.505,227.662L384.869,221.71ZM333.055,103.846C325.737,108.593 318.838,113.479 312.115,118.661L287.829,226.223C292.658,225.924 297.49,225.63 302.323,225.339C304.887,225.185 307.452,225.035 310.018,224.887L333.055,103.846ZM538.875,147.599L550.788,224.53C556.985,224.991 563.174,225.497 569.352,226.05L553.512,163.344C550.062,159.373 546.619,155.594 543.207,152.069C541.744,150.557 540.301,149.067 538.875,147.599ZM462.05,220.964L461.948,227.32C470.734,227.401 479.518,227.526 488.301,227.716L488.187,221.489C479.478,221.24 470.765,221.068 462.05,220.964ZM410.789,221.113C402.194,221.257 393.598,221.457 385.003,221.707L384.639,227.66C393.252,227.492 401.873,227.369 410.514,227.29L410.789,221.113ZM461.916,220.963C454.096,220.871 446.274,220.835 438.45,220.85L438.304,226.813L438.171,226.808L438.317,220.851C429.187,220.869 420.056,220.958 410.923,221.111L410.648,227.289C418.27,227.22 425.906,227.186 433.565,227.187C442.981,227.198 452.399,227.233 461.815,227.319L461.916,220.963ZM352.593,92.055C345.742,95.916 339.329,99.783 333.21,103.746L310.155,224.879C318.143,224.42 326.139,223.987 334.142,223.586L352.593,92.055ZM522.006,130.67L532.072,223.271C538.271,223.644 544.466,224.06 550.652,224.52L538.716,147.435C532.962,141.509 527.48,135.933 522.006,130.67ZM374.706,83.382C367.498,85.169 360.596,87.598 354.877,90.776C354.159,91.175 353.447,91.574 352.739,91.972L334.278,223.58C342.035,223.192 349.799,222.835 357.57,222.513L374.706,83.382ZM504.582,115.168L510.826,222.157C517.868,222.473 524.906,222.841 531.937,223.263L521.856,130.527C516.189,125.085 510.529,119.978 504.582,115.168ZM398.194,79.693C390.799,80.25 382.646,81.424 374.844,83.348L357.705,222.507C366.756,222.133 375.816,221.806 384.885,221.535L398.194,79.693ZM485.002,101.225L488.315,221.322C495.775,221.543 503.236,221.818 510.692,222.151L504.442,115.055C498.366,110.15 491.991,105.554 485.002,101.225ZM420.309,79.635C415.064,79.273 409.704,79.188 404.199,79.367C402.315,79.428 400.35,79.532 398.329,79.683L385.019,221.531C393.606,221.275 402.201,221.069 410.802,220.919L420.309,79.635ZM465.15,90.66L462.054,220.769C470.758,220.88 479.47,221.062 488.182,221.318L484.867,101.141C482.68,99.789 480.433,98.463 478.117,97.162C473.798,94.736 469.483,92.571 465.15,90.66ZM420.442,79.644L410.936,220.917C420.058,220.758 429.188,220.664 438.325,220.64L443.504,83.238C436.007,81.38 428.355,80.197 420.442,79.644ZM443.636,83.27L438.458,220.64C440.099,220.636 441.741,220.634 443.382,220.635C449.556,220.645 455.737,220.688 461.921,220.767L465.018,90.602C457.972,87.503 450.876,85.072 443.636,83.27Z" style="fill:white;stroke:rgb(128,128,128);stroke-width:0.97px;stroke-linecap:butt;"/>
                    </g>
                </g>
            </g>
            <rect x="4543.25" y="873.403" width="4433.77" height="7773.39" style="fill:none;stroke:black;stroke-width:11.69px;"/>
        </g>
    </g>
</svg>
